<svg id="Layer_1" data-name="Layer 1" xmlns="http://www.w3.org/2000/svg" viewBox="0 0 3606.23 1834.61">
  <defs>
    <style>
      .cls-1 {
        fill: none;
        stroke: #ffffff;
        stroke-width: 2;
        stroke-miterlimit: 10;
      }
    </style>
  </defs>
  <path class="cls-1" d="M1688.7-256.53c8.68,8.3,16.34,16,24.42,23.27,10.66,9.57,20.83,19.64,31,29.73,4.11,4.08,5.53,8.81,5.45,14.43-.16,11.66-.1,23.32,0,35,.17,25.34-13.07,41.87-34.91,52.36a59.33,59.33,0,0,1-26.16,5.5c-143.29-.14-286.59,1.35-429.86-.46C1072-99.08,885.45-97,698.89-98c-17.84-.1-16.65-1.17-16.66,16.93,0,16.65.39,33.32-.09,50-.89,31,2.74,61.87,1.77,92.84-.09,2.67.05,5.34,0,8-.36,9.14-1.21,10.12-10.72,10.11-34,0-68-.17-102-.27-3,0-6-.11-9,.09-6.47.42-7.41,1.34-7.84,7.72-.2,3-.08,6-.08,9q0,88.46,0,176.9-.18,328.8-.41,657.61c0,16.53,0,16.55-16.4,16.55q-156.45,0-312.9,0c-18.32,0-36.65-.15-55-.33-11-.1-11.74-.84-11.79-12.12-.08-18.32,0-36.64,0-55,0-6,1-12.45-8.07-13-2.22-.12-3-2.56-3.2-4.57-.32-3.3-.43-6.64-.44-10q0-52,0-103.94c0-11.32,2.27-22.51,1.55-33.88-.51-8.16-.31-8.37-8.27-9.18-3.85-.39-7.33-1.26-9.78-4.23-4.31-5.2-9.92-6.28-16.18-5.85a31.26,31.26,0,0,1-4,0c-7.69-.38-8.54-1.17-9.25-8.62-.12-1.32-.14-2.66-.13-4,.05-4.93-2.35-6.92-7.29-7.4-10.39-1-10.57-1.24-10.59-11.27-.09-34-.61-68,.26-101.94.35-13.61.9-27.25,1.3-40.88.22-7.59,1.16-8.45,8.91-8.66s15.33-.25,23,0c5.29.15,9.82-1,13.46-5.08,2.5-2.84,5.73-4.18,9.63-4.64,8.75-1,8.8-1.22,8.88-10.6q.32-38,.49-75.94c.08-21.32,0-42.65,0-64,0-5.29-.65-10.95,6.77-12.43,2.21-.45,2.61-2.84,2.76-4.87s.15-4,.15-6q.23-131.92.42-263.84v-1C158,52.34,157.69,52,145.72,51.9s-24,.1-36-.07c-8.76-.13-9.51-1-9.93-9.83-.08-1.66,0-3.34-.1-5-.6-7.06-4.88-9-10.76-4.84a49.08,49.08,0,0,0-5.83,5.45c-53,53-106.51,105.54-158.73,159.32-13.34,13.75-25.75,28.58-39.31,42.25-1.41,1.42-2.81,2.84-4.25,4.23-8,7.77-9.28,7.87-17,.23-11.16-11-22.42-21.88-33.15-33.28-5.46-5.82-11.15-8-18.67-5.27a21.93,21.93,0,0,1-2.95.54c-21,4.48-17.62,1.08-26.47,19.67-3.3,6.93-8.17,8.49-15.16,8.46-42.32-.2-84.64-.1-127-.09-3,0-6,.09-9,.07-4.53,0-6.67,2-6.66,6.68s2.42,6.52,6.83,6.56a86.77,86.77,0,0,1,12,.49c5.9.88,6.85,3,3.72,8-2.64,4.24-5.71,8.2-8.63,12.25-7.8,10.8-15.77,21.48-23.38,32.42-3,4.31-6.62,5.92-11.75,5.89q-50.49-.37-101-.34c-6,0-10.12-2.12-13.14-7.24-2.2-3.71-5.48-6.85-7.33-10.69-4.15-8.57-10.94-10.19-19.71-9.92-16.64.52-33.32.24-50,.1-8.89-.07-9.84-1-10.06-9.71-.54-21.61,1-19.65,18-19,21.36.77,42.49-2.81,63.81-2.3,6.11.15,7.58-1.72,7.49-6.76s-1.45-5.89-7.88-6.45c-27.25-2.4-54.55-1.61-81.85-1.66-39.32-.06-78.64-.22-118,.15-8.3.08-14.15-2.16-17.66-9.79-.69-1.5-1.94-2.75-2.61-4.25-3-6.63-8-8.83-15.19-8.75-27,.28-54,.11-81,.1-3,0-6-.07-9-.1-4.6-.06-7.88-2-8.26-6.85-.5-6.49-4.75-7.07-9.82-7.05-16,.06-32,0-48,0-5,0-10,0-15,0-14.42,0-14.6-.23-15-14.31-.3-11.29-.62-11.44-13.22-11.68-197.56-3.78-395.13-.78-592.7-1.6-90.63-.38-181.27-.06-271.91-.07-15.87,0-15.9,0-15.9-16q0-147.91,0-295.83c0-16.5,0-16.52,16.76-16.52q110.48,0,220.93,0c1.34,0,2.67,0,4,0,11.77.17,12.37.69,12.4,12.54.07,20.32,0,40.64,0,61,0,11.77.29,12.08,11.48,12.09q61.47.08,123,0c10.57,0,11.27-.71,11.28-11.46q.09-83,0-165.9c0-11.24-.66-11.84-12-11.88-22-.07-44,0-66,0-2.66,0-5.33-.07-8-.2-4-.18-6.18-2.42-6.2-6.34q-.15-18.49,0-37c0-4,2.41-6.08,6.29-6.3,3.66-.21,7.33-.23,11-.24q185-.1,369.88-.21c5.65,0,11.27.07,16.9-1.18,21.29-4.76,29.35-17.13,31.77-36.9a74.59,74.59,0,0,0,.26-9q0-95.94,0-191.89c0-14.56,0-14.59-14.28-14.61q-31,0-62,0c-2.67,0-5.35.11-8-.09-6.38-.48-7.44-1.55-8-7.73a29.77,29.77,0,0,1-.07-3c0-12.31-.1-24.61,0-36.92.09-8.77,1.23-9.87,9.65-10.27,2.66-.13,5.33,0,8,0q331.4-.09,662.79-.21c16.65,0,33.17,3,49.85,1.82,2.66-.18,5.34.06,8-.11,17.09-1.1,26.61-10.07,27.24-27,.61-16.3.56-32.66,0-49-.55-17.19-7.14-23.29-24.26-23.35-34.32-.12-68.64,0-103,0-3,0-6-.07-9-.1-4.83,0-7.46-2.32-7.45-7.31,0-2-.09-4-.09-6q0-67.47,0-134.93c0-2-.08-4,.09-6,.53-6.1,1.67-7.6,8-7.68q29.49-.35,59,0c6.91.07,8.05,1.51,8.94,8.09,1.53,11.36,1.53,11.41,13.44,11.41H210.23c16.09,0,16.11,0,16.11,15.72q0,54.48,0,108.94c0,16.16,0,16.17-16.69,16.17q-104.46,0-208.93,0c-5.69,0-11.29.2-16.81,1.82-7.69,2.26-12.62,6.69-14.26,14.93a65.86,65.86,0,0,0-1,20.87c1.4,11.3,1.17,22.59,1.43,33.9.17,7.07,1.29,13.8,6.52,19.38,5.94,6.33,13.16,8.53,21.55,8.51,29.66-.09,59.33-.64,89,.08C217-623,347-626.1,476.88-624c126.59,2,253.19-.21,379.75,2,129.93,2.27,259.86-.36,389.74,2.14,65.28,1.25,130.53.6,195.8,1.22,56.64.53,113.31-.79,169.92.62,49.61,1.24,99.21,1.38,148.81,1.65,10,0,10.87,1,11,10.88.15,11.33.09,22.65,0,34-.06,12.54-.58,13.13-12.83,13.16-21.66.07-43.32,0-65,0-20,0-18.13-.88-18.16,18.64q-.06,52,0,103.94,0,60.93,0,121.85c0,3,.06,6,.13,9,.1,4.07,2.29,6.06,6.27,6.17,2.67.08,5.33.14,8,.14,24,0,48-.05,72,0,10.63,0,11.38.89,11.56,11.32.08,5,0,10,0,15-.06,13.49-.27,13.72-14.24,13.75-19.66,0-39.32,0-59,0C1697.4-258.44,1694-259.07,1688.7-256.53ZM-1041.82-482.31c.2,2.66.1,5.33.1,8v102.93c0,7.33-.32,14.68.15,22,.58,9,2.06,17.92,8,25.26,7.36,9.12,17.65,11.45,28.62,11.6,60.59.81,121.19.48,181.8,1.36,109.94,1.6,219.91.35,329.87.41a142,142,0,0,0,32.66-3.35c18.89-4.43,30.57-16.93,32.38-36.15a48.75,48.75,0,0,0,.24-5,167.48,167.48,0,0,1,14.22-68.91,154.62,154.62,0,0,1,24-38.94c21.61-25.34,48.12-44.87,77.16-61a33.42,33.42,0,0,0,11.15-9.71c7.43-10.22,4.05-22.21-8-26.3C-318-563-327-563.81-336-563.92c-89.57-1.07-179.15-.35-268.73-1.58-124.56-1.7-249.15-1.65-373.73-2.58-3.67,0-7.34.16-11,0a57.51,57.51,0,0,0-24.47,4c-11.74,4.62-19.9,12.79-24.23,24.78-3.95,10.93-3.57,22.25-3.6,33.58C-1041.78-492.62-1042.34-489.35-1041.82-482.31Zm2305.75-77.77v.16q-134.94,0-269.88,0c-26.63,0-53.26-.12-79.85,1.81a37.83,37.83,0,0,0-9.79,1.73c-7.95,2.76-12.13,8.88-12.33,17.32-.26,10.79,7.69,15.82,14.91,20.84,14.78,10.25,30.25,19.49,45,29.77,16,11.11,29.4,24.71,39.59,41.57,16.72,27.68,26.41,57.27,26.64,89.78a52.68,52.68,0,0,0,4.15,20.46c4.76,11.06,13.16,19.9,23.8,24.45a90.87,90.87,0,0,0,35.9,7.49q165.43-.36,330.86-.14c2.66,0,5.34.09,8-.07,14.66-.92,28.62-4.33,39-15.3,11-11.54,22.81-22.07,34.49-32.82,4.91-4.52,9.89-8.72,15.86-12,14.35-7.79,30.17-10.27,45.79-13.57,18.24-3.86,36.59-7.25,54.73-11.51,12.5-2.93,16.66-7.68,16.75-19,.27-36.64.41-73.29-.09-109.92-.14-9.92-2.87-19.39-10.63-27.17-10.18-10.19-22.22-14-36.07-14Q1422.36-560.07,1263.93-560.08ZM57.92-312.49q86.93,0,173.86,0a104.25,104.25,0,0,0,19.84-1.75c16.11-3.1,23.26-10.41,26.14-26.8a140.48,140.48,0,0,0,2-24.82c-.06-40.62,0-81.24,0-121.86,0-11,.62-22-.25-33-1.74-21.92-9.42-36.11-33.43-40.7-5-1-10-.74-14.94-.74H-37.6c-5.65,0-11.3.26-16.91-1a19.11,19.11,0,0,0-6.91,0c-31.19,4.92-62.25,9.85-92.64,19.32-29.71,9.26-58.51,20.21-85.66,35.25-24.16,13.39-48.14,27.18-71.68,41.62s-41.65,33.52-53.2,59.12c-6,13.39-8.63,27.28-10.58,41.33-3.32,23.86,5.51,39.43,24.16,51.65,2.33,1.53,4.88,1.9,7.51,2.39,13.54,2.5,27.21,2.07,40.84,1.88,67.9-.95,135.81.16,203.72-1.66C-46.69-313.61,5.63-312.49,57.92-312.49Zm623.43,5.66c73.28,0,146.56-.12,219.84.12,11.41,0,22.54-.68,33.57-3.68,12.9-3.51,21.45-12.71,26.64-23.74,5.32-11.31,8.15-23.9,4.34-36.93-1.86-6.37-2.18-13.17-4-19.56a121.49,121.49,0,0,0-14.45-32.73c-11.49-18-27.17-31.85-45.17-43.07-32.22-20.1-64.9-39.43-99.62-55-9.4-4.21-18.4-9.37-28.45-12.12-13.49-3.69-26.91-7.61-40.36-11.45-25.71-7.33-52.06-12.3-78.63-12.54-94.26-.85-188.52-.5-282.78-.6a69,69,0,0,0-9,.13c-23.8,3-33.93,12-37.11,35.54a60.65,60.65,0,0,0-.29,8q0,79.92,0,159.84a30.51,30.51,0,0,0,.18,6c1.9,9.35,2.78,18.72,9.68,26.69,8.72,10.07,19.62,13.21,31.94,13.35,33.6.39,67.21,1,100.81,1.45C539.45-306.12,610.41-306.83,681.35-306.83Zm40.53,50.56H517.09a102.84,102.84,0,0,0-11,.39c-3.52.38-6.3,2.15-7.27,5.86a7.41,7.41,0,0,0,2.89,8,107.85,107.85,0,0,0,11.57,7.79c35.82,21.16,71.76,42.13,107.52,63.4,26.94,16,55.68,24.53,87.26,24.36,70.26-.39,140.52-.18,210.79,0a81.69,81.69,0,0,0,24.56-3.6,35.68,35.68,0,0,0,23.25-21.7c7.45-19.41,7.26-39.73,2.67-59.91-2.69-11.78-10.41-18.85-22-22.12a74.67,74.67,0,0,0-20.72-2.48Q824.27-256.21,721.88-256.27Zm-1515.18-8v-.24c-67.64,0-135.28.16-202.92-.17-10.26-.05-19.09,3.34-27.25,8.31a32.64,32.64,0,0,0-14.65,19.42c-5,17.11-3.53,34.36-2.27,51.54.54,7.42,2.64,15,8.09,21.11,8.59,9.62,19.74,11.67,31.7,11.67q100.46,0,200.92,0a178.84,178.84,0,0,0,42.49-5.24c15.78-3.85,29.86-11.39,43.72-19.29,43.12-24.57,86.05-49.48,129-74.27a28.49,28.49,0,0,0,5.79-3.86c3.69-3.6,2.42-7.65-2.77-8.55a58,58,0,0,0-10-.41Q-692.34-264.26-793.3-264.24ZM-350-148.92h96.87c10,0,20,.06,30-.06,7.13-.08,14.15-1.66,19.82-5.84,10.74-8,9.75-23.41-2.74-32-15-10.34-30.11-20.83-47.34-27.56q-30.69-12-61.18-24.45c-12.34-5-24.76-9.28-38.22-10.65-24.77-2.51-49.34-7.38-74.42-2.66-16.91,3.19-34.24,3.06-50.75,9.53-35,13.73-70.59,26-102.44,46.62-6.43,4.16-13.25,7.7-18,14-7.33,9.74-3.17,24.65,8.14,29.23a33.24,33.24,0,0,0,12.71,2.14c42.91,0,85.81.22,128.72,1.49C-415.92-148.14-382.94-148.92-350-148.92Zm657.08,0v.33q86.42,0,172.82,0c5,0,10,.23,14.85-1.33,13.05-4.16,17.52-18.64,9.16-29.59-3.13-4.1-7.27-6.71-11.57-9.31-20.86-12.57-42.72-23.3-64.91-33.1-20.62-9.1-40.89-19.4-63.52-23.42-24.84-4.42-49.37-10.59-75-7-21.45,3-42.79,6.41-63.64,12.18-35.13,9.72-67.86,25.4-100.4,41.5A63.74,63.74,0,0,0,108-186.42c-11,11-6.71,29.83,7.62,35.13a41.65,41.65,0,0,0,14.68,2.41Q218.69-149,307.09-148.91Zm1172.35-107c-34.31,0-68.63.09-102.94-.07a83.91,83.91,0,0,0-22.63,3.3c-8.43,2.28-14,8.09-17.1,15.55a56.26,56.26,0,0,0-4.78,23.32c.27,9.65.2,19.32,0,29a51.9,51.9,0,0,0,2.79,17.67c3.18,9.4,9.52,15.73,19.22,18.63,5.85,1.75,11.77,2,17.79,2q79.46-.06,158.91,0a99.83,99.83,0,0,1,13,.58c15.94,2.12,31.94,1.06,47.89.7,5.51-.12,11.25-1.88,16.39-4.06A27.75,27.75,0,0,0,1624.26-167c3.6-11.07,3.06-22.34,3.09-33.64,0-10.31.43-20.6-2.94-30.66-3.77-11.24-11-18.74-22.31-22.14a63.76,63.76,0,0,0-18.72-2.55C1548.73-255.89,1514.09-255.95,1479.44-255.95ZM-1236.17-154.58q53.48,0,107,0c3.67,0,7.34,0,11-.27,15.71-1.16,27.31-11.6,28.9-25.59,2.15-18.87,2.86-37.74-.94-56.58-1.8-8.92-7.11-15.06-14.38-19.44-8.31-5-17.2-8.16-27.36-8.13-70.31.23-140.62.42-210.92-.1-15.58-.12-35.18,11.75-37.47,30.76-2.4,19.88-2.9,39.85,1.35,59.58,1.88,8.74,7.8,14.4,16.19,17.51,5.42,2,11,2.3,16.72,2.29Q-1291.15-154.62-1236.17-154.58Zm2388.21,8q34.95,0,69.88,0c9,0,18,.08,27-.1,16.89-.33,30.39-11.84,33.34-27.38,2.46-13,1-25.87,1.64-38.78a59.35,59.35,0,0,0-2.72-19.67c-3.13-10.75-10-17.75-20.73-20.89a65.66,65.66,0,0,0-18.69-2.6q-90.35.15-180.69.07c-2,0-4,0-6,.09-22.92,1.18-35.78,17.49-35.33,36.57.27,11.63-.26,23.29.13,34.92.33,9.75,2.51,18.85,9.58,26.54,8.23,8.93,18.49,11.2,29.78,11.22Q1105.63-146.54,1152-146.58ZM-46.56-258.27v.32H-190.33a73.2,73.2,0,0,0-8,.24c-3.75.42-7.41,1.5-8.55,5.66s1.41,6.9,4.7,9c1.41.89,2.87,1.7,4.3,2.54,30.15,17.64,60.22,35.4,90.46,52.88,12.37,7.15,24.22,15.27,37.76,20.29A61.13,61.13,0,0,0-46.2-163.5c13.47-.48,26-4.69,37.66-11.75,37-22.4,74.12-44.59,111.18-66.9a28.18,28.18,0,0,0,6.36-4.74c4.18-4.56,2.35-9.86-3.83-11a57,57,0,0,0-10-.38Q24.32-258.28-46.56-258.27Zm1600.85-46.57h42.86A50.45,50.45,0,0,0,1609-306c10.19-2.45,16.23-8.87,18-19a83.3,83.3,0,0,0,.73-15.88c-.28-11.39-4.48-14.64-15.87-12.73-1.31.22-2.58.63-3.88.94-19.68,4.79-39.25,10.11-59.07,14.22-18.65,3.86-31.28,16.81-45.38,27.7a3.88,3.88,0,0,0-.67.73c-1.84,2.45-1.75,4.39,1.66,4.91a48.87,48.87,0,0,0,7,.27Q1532.87-304.81,1554.29-304.84Z" transform="translate(1831.78 886.7)"/>
</svg>
